<svg width="115" height="50" viewBox="0 0 115 50" fill="none" xmlns="http://www.w3.org/2000/svg">
<g clip-path="url(#clip0_16_6546)">
<path d="M72.8019 22.3757C72.1709 22.3757 71.6381 22.9086 71.6381 23.5396C71.6381 24.1706 72.1709 24.7035 72.8019 24.7035C73.4329 24.7035 73.9518 24.1706 73.9518 23.5396C73.9518 22.9086 73.4329 22.3757 72.8019 22.3757ZM71.9045 33.0048H73.6853V25.9374H71.9045V33.0048ZM62.8455 24.9979H65.8744V33.0048H67.8656V24.9979H70.8945V23.189H62.8455V24.9979ZM89.3944 31.6867C88.2866 31.6867 87.4733 31.1538 87.305 29.8357H92.255C92.3111 29.5973 92.3672 29.2327 92.3672 28.8401C92.3672 26.9891 91.0771 25.657 89.1139 25.657C86.8002 25.657 85.4821 27.3818 85.4821 29.4711C85.4821 31.5324 86.8984 33.2853 89.4084 33.2853C90.7406 33.2853 91.8343 32.7384 92.4934 31.855L91.2173 30.8453C90.8387 31.3502 90.1656 31.6867 89.3944 31.6867ZM89.0719 27.1153C90.0675 27.1153 90.5863 27.8305 90.6144 28.5456H87.3611C87.5574 27.6201 88.1604 27.1153 89.0719 27.1153ZM77.5105 30.4247V27.536H79.6699V25.9374H77.5105V24.1706H75.7156V25.9374H74.3975V27.536H75.7156V30.4247C75.7156 32.1494 76.5569 33.145 78.3238 33.145C78.9127 33.145 79.3334 33.0749 79.6839 32.9207V31.3642C79.4456 31.4623 79.1231 31.5184 78.6323 31.5184C77.9311 31.5184 77.5105 31.2099 77.5105 30.4247ZM95.0966 27.7604C95.0966 27.3958 95.3631 27.0873 95.924 27.0873C96.4708 27.0873 96.9336 27.4519 97.2982 27.9006L98.4761 26.8629C97.9713 26.1758 96.9897 25.657 95.9099 25.657C94.4376 25.657 93.3859 26.5965 93.3859 27.8445C93.3859 30.3265 96.7653 29.8638 96.7653 31.0977C96.7653 31.5184 96.4708 31.855 95.8959 31.855C95.2228 31.855 94.704 31.4623 94.2693 30.9154L93.0914 31.9812C93.7645 32.7805 94.6619 33.2853 95.924 33.2853C97.2561 33.2853 98.448 32.472 98.4761 30.9856C98.4761 28.5456 95.0966 28.9663 95.0966 27.7604ZM82.5957 26.6386V25.9374H80.8149V33.0048H82.5957V28.4755C82.8622 28.0268 83.423 27.55 84.2925 27.55C84.615 27.55 84.8533 27.5921 85.0777 27.6482V25.8954C84.9094 25.8393 84.6991 25.7972 84.4607 25.7972C83.6614 25.7972 83.0585 26.1618 82.5957 26.6386ZM50.4714 12.6113L35.1843 9.91573C32.3031 9.40806 29.5573 10.8844 28.27 13.3442L47.256 33.0043H53.5259L55.784 20.1982C56.412 16.6367 54.0336 13.2394 50.4714 12.6113Z" fill="#E1000F"/>
<path d="M47.2559 33.0043V19.8938C47.2559 16.2768 44.3238 13.3446 40.7068 13.3446H25.1834C21.5664 13.3446 18.6343 16.2768 18.6343 19.8938L40.3846 33.0043H47.2559Z" fill="white"/>
<path d="M30.5157 14.75L15.2286 17.4456C11.6664 18.0737 9.28795 21.4702 9.91602 25.0325L11.3222 33.0046H40.3847L38.1026 20.0626C37.4746 16.5003 34.078 14.1219 30.5157 14.75Z" fill="#8585F6"/>
<path d="M63.8555 20.3053H65.8467V16.1266H69.0158V14.4719H65.8467V12.1442H69.5767V10.4895H63.8555V20.3053ZM71.9302 13.9391V13.2379H70.1493V20.3053H71.9302V15.776C72.1966 15.3273 72.7575 14.8505 73.6269 14.8505C73.9494 14.8505 74.1878 14.8926 74.4122 14.9487V13.1959C74.2439 13.1398 74.0336 13.0977 73.7952 13.0977C72.9959 13.0977 72.3929 13.4623 71.9302 13.9391ZM78.0899 12.9575C76.7998 12.9575 75.7621 13.4903 75.1311 14.3597L76.4352 15.3553C76.8138 14.8365 77.3467 14.514 78.0338 14.514C78.8471 14.514 79.408 14.9908 79.408 15.734V15.9163L77.2485 16.2808C75.7341 16.5332 74.9068 17.3325 74.9068 18.3982C74.9068 19.7023 75.8743 20.5157 77.2906 20.5157C78.1179 20.5157 78.9593 20.1651 79.408 19.6182V20.3053H81.1889V15.734C81.1889 14.1775 80.1372 12.9575 78.0899 12.9575ZM79.408 18.1599C79.0574 18.7208 78.4685 19.0994 77.6552 19.0994C77.0522 19.0994 76.6736 18.7909 76.6736 18.3141C76.6736 17.8794 76.9821 17.5709 77.7253 17.4447L79.408 17.1643V18.1599ZM86.5625 12.9575C85.623 12.9575 84.964 13.3221 84.4732 13.7988V13.2379H82.6923V20.3053H84.4732V15.6919C84.7396 15.2432 85.2164 14.6402 86.1138 14.6402C86.9832 14.6402 87.5161 15.2291 87.5161 16.1687V20.3053H89.311V16.0985C89.311 14.0092 88.091 12.9575 86.5625 12.9575ZM94.2124 14.6402C94.9416 14.6402 95.5025 14.9627 95.839 15.4535L97.2273 14.3878C96.5682 13.5184 95.5305 12.9575 94.2405 12.9575C91.8005 12.9575 90.3422 14.7103 90.3422 16.7716C90.3422 18.8329 91.8005 20.5858 94.2405 20.5858C95.5305 20.5858 96.5682 20.0249 97.2273 19.1555L95.839 18.0897C95.5025 18.5805 94.9416 18.9031 94.2405 18.9031C93.0485 18.9031 92.1932 18.0196 92.1932 16.7716C92.1932 15.5376 93.0485 14.6402 94.2124 14.6402ZM103.199 18.1458C102.82 18.6506 102.147 18.9872 101.376 18.9872C100.268 18.9872 99.4546 18.4543 99.2863 17.1362H104.236C104.292 16.8978 104.348 16.5332 104.348 16.1406C104.348 14.2896 103.058 12.9575 101.095 12.9575C98.7815 12.9575 97.4634 14.6823 97.4634 16.7716C97.4634 18.8329 98.8796 20.5858 101.39 20.5858C102.722 20.5858 103.816 20.0389 104.475 19.1555L103.199 18.1458ZM101.053 14.4158C102.049 14.4158 102.568 15.131 102.596 15.8461H99.3424C99.5387 14.9206 100.142 14.4158 101.053 14.4158Z" fill="#8585F6"/>
<path d="M38.7788 40.1842H39.2291V37.9646H38.7788V40.1842ZM35.9662 38.3736H36.6511V40.1842H37.1015V38.3736H37.7864V37.9646H35.9662V38.3736ZM45.2096 39.5691L44.2171 37.9646H43.6399V40.1842H44.0902V38.5797L45.0827 40.1842H45.6599V37.9646H45.2096V39.5691ZM41.436 37.9011C40.7351 37.9011 40.2562 38.4401 40.2562 39.0743C40.2562 39.7085 40.7351 40.2477 41.436 40.2477C42.1335 40.2477 42.6124 39.7085 42.6124 39.0743C42.6124 38.4401 42.1335 37.9011 41.436 37.9011ZM41.436 39.8259C41.0173 39.8259 40.7194 39.4993 40.7194 39.0743C40.7194 38.6493 41.0173 38.3229 41.436 38.3229C41.8513 38.3229 42.1494 38.6493 42.1494 39.0743C42.1494 39.4993 41.8513 39.8259 41.436 39.8259ZM47.4387 37.9646L46.5984 40.1842H47.0772L47.2896 39.607H48.1775L48.3899 40.1842H48.8688L48.0285 37.9646H47.4387ZM47.4292 39.2234L47.7336 38.3893L48.0381 39.2234H47.4292ZM11.7031 37.9646L10.8628 40.1842H11.3416L11.554 39.607H12.4419L12.6543 40.1842H13.1332L12.2929 37.9646H11.7031ZM11.6937 39.2234L11.9981 38.3893L12.3025 39.2234H11.6937ZM50.2577 37.9646H49.8074V40.1842H51.1012V39.7752H50.2577V37.9646ZM14.9945 39.2456H15.5589V39.6324C15.4323 39.753 15.2514 39.8259 15.0421 39.8259C14.6077 39.8259 14.2938 39.4993 14.2938 39.0743C14.2938 38.6493 14.5918 38.3229 15.0104 38.3229C15.2641 38.3229 15.4639 38.4464 15.5908 38.6273L15.9459 38.3514C15.743 38.0818 15.4132 37.9011 15.0104 37.9011C14.3096 37.9011 13.8307 38.4401 13.8307 39.0743C13.8307 39.7085 14.3224 40.2477 15.0421 40.2477C15.4575 40.2477 15.8032 40.07 16.0093 39.7943V38.8619H14.9945V39.2456ZM34.0476 37.9646L33.2073 40.1842H33.6862L33.8986 39.607H34.7865L34.9989 40.1842H35.4777L34.6374 37.9646H34.0476ZM34.0382 39.2234L34.3426 38.3893L34.647 39.2234H34.0382ZM17.1064 40.1842H18.4002V39.81H17.5567V39.2393H18.2733V38.8651H17.5567V38.3386H18.4002V37.9646H17.1064V40.1842ZM101.931 37.3461H101.468L101.11 37.7742H101.519L101.931 37.3461ZM21.0892 39.5691L20.0967 37.9646H19.5196V40.1842H19.9699V38.5797L20.9624 40.1842H21.5396V37.9646H21.0892V39.5691ZM31.8185 39.5691L30.826 37.9646H30.2488V40.1842H30.6992V38.5797L31.6917 40.1842H32.2689V37.9646H31.8185V39.5691ZM25.6682 40.1842H26.962V39.81H26.1185V39.2393H26.8351V38.8651H26.1185V38.3386H26.962V37.9646H25.6682V40.1842ZM23.7465 38.3229C24.0002 38.3229 24.2 38.4464 24.3268 38.6273L24.6819 38.3514C24.479 38.0818 24.1492 37.9011 23.7465 37.9011C23.0456 37.9011 22.5668 38.4401 22.5668 39.0743C22.5668 39.7085 23.0456 40.2477 23.7465 40.2477C24.1492 40.2477 24.479 40.07 24.6819 39.7943L24.3268 39.5215C24.2 39.7022 24.0002 39.8259 23.7465 39.8259C23.3278 39.8259 23.0299 39.4993 23.0299 39.0743C23.0299 38.6493 23.3278 38.3229 23.7465 38.3229ZM86.9863 37.3461H86.5234L86.1651 37.7742H86.5741L86.9863 37.3461ZM92.285 39.3533C92.285 39.6515 92.1139 39.8259 91.838 39.8259C91.5558 39.8259 91.3877 39.6515 91.3877 39.3533V37.9646H90.9373V39.3154C90.9373 39.8989 91.2799 40.2477 91.8349 40.2477C92.393 40.2477 92.7354 39.8989 92.7354 39.3154V37.9646H92.285V39.3533ZM95.3577 38.6273C95.3577 38.2149 95.0565 37.9646 94.5682 37.9646H93.8895V40.1842H94.3399V39.2869H94.5713L95.1642 40.1842H95.6938L94.9994 39.2011C95.2278 39.0965 95.3577 38.8967 95.3577 38.6273ZM94.5935 38.9127H94.3399V38.3386H94.5935C94.7837 38.3386 94.8946 38.4529 94.8946 38.6208C94.8946 38.8016 94.7837 38.9127 94.5935 38.9127ZM89.0793 38.3229C89.333 38.3229 89.5328 38.4464 89.6596 38.6273L90.0148 38.3514C89.8119 38.0818 89.482 37.9011 89.0793 37.9011C88.3785 37.9011 87.8996 38.4401 87.8996 39.0743C87.8996 39.7085 88.3785 40.2477 89.0793 40.2477C89.482 40.2477 89.8119 40.07 90.0148 39.7943L89.6596 39.5215C89.5328 39.7022 89.333 39.8259 89.0793 39.8259C88.6606 39.8259 88.3627 39.4993 88.3627 39.0743C88.3627 38.6493 88.6606 38.3229 89.0793 38.3229ZM85.7275 40.1842H87.0213V39.81H86.1779V39.2393H86.8945V38.8651H86.1779V38.3386H87.0213V37.9646H85.7275V40.1842ZM96.5754 40.1842H97.0258V37.9646H96.5754V40.1842ZM52.0937 40.1842H53.3875V39.81H52.544V39.2393H53.2606V38.8651H52.544V38.3386H53.3875V37.9646H52.0937V40.1842ZM100.672 40.1842H101.966V39.81H101.123V39.2393H101.839V38.8651H101.123V38.3386H101.966V37.9646H100.672V40.1842ZM83.9136 38.2942C84.0817 38.2942 84.2276 38.4053 84.3576 38.5734L84.6874 38.2753C84.4971 38.0501 84.2434 37.9011 83.9105 37.9011C83.4855 37.9011 83.1938 38.1927 83.1938 38.5447C83.1938 39.2963 84.2021 39.1854 84.2021 39.5944C84.2021 39.753 84.0943 39.8481 83.9168 39.8481C83.736 39.8481 83.5584 39.7467 83.4253 39.5754L83.0987 39.8767C83.2953 40.1113 83.5458 40.2477 83.9199 40.2477C84.3291 40.2477 84.6524 39.9972 84.6587 39.5785C84.6587 38.8175 83.6505 38.9317 83.6505 38.529C83.6505 38.3956 83.7551 38.2942 83.9136 38.2942ZM98.8584 38.2942C99.0266 38.2942 99.1723 38.4053 99.3025 38.5734L99.6322 38.2753C99.4419 38.0501 99.1882 37.9011 98.8553 37.9011C98.4303 37.9011 98.1386 38.1927 98.1386 38.5447C98.1386 39.2963 99.1471 39.1854 99.1471 39.5944C99.1471 39.753 99.0391 39.8481 98.8616 39.8481C98.6808 39.8481 98.5033 39.7467 98.3701 39.5754L98.0435 39.8767C98.2401 40.1113 98.4907 40.2477 98.8647 40.2477C99.2738 40.2477 99.5972 39.9972 99.6037 39.5785C99.6037 38.8175 98.5953 38.9317 98.5953 38.529C98.5953 38.3956 98.6999 38.2942 98.8584 38.2942ZM103.437 38.529C103.437 38.3956 103.542 38.2942 103.7 38.2942C103.869 38.2942 104.014 38.4053 104.145 38.5734L104.474 38.2753C104.284 38.0501 104.03 37.9011 103.697 37.9011C103.272 37.9011 102.981 38.1927 102.981 38.5447C102.981 39.2963 103.989 39.1854 103.989 39.5944C103.989 39.753 103.881 39.8481 103.704 39.8481C103.523 39.8481 103.345 39.7467 103.212 39.5754L102.886 39.8767C103.082 40.1113 103.333 40.2477 103.707 40.2477C104.116 40.2477 104.439 39.9972 104.446 39.5785C104.446 38.8175 103.437 38.9317 103.437 38.529ZM62.7848 38.2942C62.953 38.2942 63.0987 38.4053 63.2289 38.5734L63.5587 38.2753C63.3683 38.0501 63.1146 37.9011 62.7817 37.9011C62.3567 37.9011 62.0651 38.1927 62.0651 38.5447C62.0651 39.2963 63.0735 39.1854 63.0735 39.5944C63.0735 39.753 62.9655 39.8481 62.788 39.8481C62.6073 39.8481 62.4297 39.7467 62.2965 39.5754L61.9699 39.8767C62.1665 40.1113 62.4171 40.2477 62.7911 40.2477C63.2002 40.2477 63.5237 39.9972 63.5301 39.5785C63.5301 38.8175 62.5217 38.9317 62.5217 38.529C62.5217 38.3956 62.6263 38.2942 62.7848 38.2942ZM59.7565 40.1842H61.0503V39.81H60.2069V39.2393H60.9235V38.8651H60.2069V38.3386H61.0503V37.9646H59.7565V40.1842ZM57.5463 37.9646H56.6744V40.1842H57.5463C58.2504 40.1842 58.7261 39.6737 58.7261 39.0743C58.7261 38.4751 58.2504 37.9646 57.5463 37.9646ZM57.5526 39.7752H57.1247V38.3736H57.5526C57.965 38.3736 58.263 38.678 58.263 39.0743C58.263 39.4676 57.965 39.7752 57.5526 39.7752ZM66.538 38.3736H67.2229V40.1842H67.6732V38.3736H68.3582V37.9646H66.538V38.3736ZM76.2887 40.1842H77.5825V39.81H76.739V39.2393H77.4557V38.8651H76.739V38.3386H77.5825V37.9646H76.2887V40.1842ZM79.317 38.2942C79.4851 38.2942 79.6309 38.4053 79.761 38.5734L80.0908 38.2753C79.9005 38.0501 79.6468 37.9011 79.3139 37.9011C78.8889 37.9011 78.5972 38.1927 78.5972 38.5447C78.5972 39.2963 79.6057 39.1854 79.6057 39.5944C79.6057 39.753 79.4977 39.8481 79.3202 39.8481C79.1394 39.8481 78.9619 39.7467 78.8287 39.5754L78.5021 39.8767C78.6987 40.1113 78.9493 40.2477 79.3233 40.2477C79.7324 40.2477 80.0559 39.9972 80.0623 39.5785C80.0623 38.8175 79.0539 38.9317 79.0539 38.529C79.0539 38.3956 79.1585 38.2942 79.317 38.2942ZM69.3507 40.1842H69.801V37.9646H69.3507V40.1842ZM75.0712 38.6273C75.0712 38.2149 74.7699 37.9646 74.2816 37.9646H73.603V40.1842H74.0533V39.2869H74.2848L74.8777 40.1842H75.4073L74.7129 39.2011C74.9412 39.0965 75.0712 38.8967 75.0712 38.6273ZM74.307 38.9127H74.0533V38.3386H74.307C74.4972 38.3386 74.6083 38.4529 74.6083 38.6208C74.6083 38.8016 74.4972 38.9127 74.307 38.9127ZM70.7902 38.3736H71.4752V40.1842H71.9255V38.3736H72.6105V37.9646H70.7902V38.3736Z" fill="white"/>
</g>
<defs>
<clipPath id="clip0_16_6546">
<rect width="114.291" height="50" fill="white"/>
</clipPath>
</defs>
</svg>
