<svg width="16" height="16" viewBox="0 0 16 16" fill="none" xmlns="http://www.w3.org/2000/svg">
<path d="M1.081 11.4919C0.892724 12.0869 1.30065 12.7133 1.92822 12.8072L2.33614 12.8699C2.77545 12.9325 3.12061 13.277 3.21475 13.7154L3.27751 14.1226C3.37164 14.7489 3.99922 15.1247 4.62679 14.9368L5.03471 14.8115C5.47401 14.6863 5.94469 14.8429 6.19572 15.2187L6.44675 15.5632C6.8233 16.0642 7.54501 16.1582 8.01569 15.7197L8.32948 15.4379C8.67464 15.1247 9.14532 15.0621 9.55325 15.2813L9.92979 15.4692C10.4946 15.7824 11.1849 15.5318 11.4046 14.9368L11.5615 14.561C11.7184 14.1539 12.1577 13.872 12.597 13.9033L13.0049 13.9347C13.6325 13.966 14.1659 13.4336 14.1032 12.8072L14.0718 12.4001C14.0404 11.9617 14.2914 11.5232 14.7307 11.3666L15.1073 11.21C15.7035 10.9595 15.9231 10.2705 15.6093 9.73812L15.3269 9.39363C15.1073 9.01782 15.17 8.51674 15.4524 8.17225L15.7348 7.85907C16.1428 7.38931 16.08 6.66901 15.5466 6.2932L15.2014 6.07398C14.8249 5.82344 14.668 5.35368 14.7935 4.91523L14.919 4.50811C15.1073 3.91308 14.6994 3.28673 14.0718 3.19278L13.6639 3.13014C13.2246 3.06751 12.8794 2.72301 12.7853 2.28457L12.7225 1.87744C12.6284 1.25109 12.0008 0.875285 11.3732 1.06319L10.9653 1.18846C10.526 1.31373 10.0553 1.15714 9.80427 0.781333L9.55325 0.436841C9.1767 -0.0642374 8.45499 -0.15819 7.98431 0.280254L7.67052 0.562111C7.32536 0.875286 6.85468 0.93792 6.44675 0.718698L6.07021 0.530794C5.50539 0.217619 4.81506 0.468159 4.59541 1.06319L4.43852 1.439C4.28162 1.84613 3.84232 2.12798 3.40302 2.09667L3.05785 2.03403C2.43028 2.00271 1.89684 2.53511 1.9596 3.16146L1.99098 3.56858C2.02236 4.00703 1.77133 4.44547 1.33203 4.60206L0.955481 4.75865C0.359286 5.00919 0.139635 5.69817 0.453422 6.23056L0.673073 6.57506C0.892724 6.95087 0.829966 7.45194 0.547558 7.79644L0.26515 8.10961C-0.142773 8.57937 -0.0800157 9.29967 0.453422 9.67548L0.798588 9.8947C1.17513 10.1452 1.33203 10.615 1.20651 11.0534L1.081 11.4919ZM5.66229 6.8256L7.04295 8.23488L10.3691 4.94655L11.8125 6.38715L8.48637 9.64416L7.04295 11.0848L5.59953 9.64416L4.21887 8.2662L5.66229 6.8256Z" fill="#000091"/>
</svg>
